<svg width="19" height="18" viewBox="0 0 19 18" fill="none" xmlns="http://www.w3.org/2000/svg">
<path d="M14.32 5.20001C13.61 5.20001 13.02 4.62001 13.02 3.90001C13.02 3.18001 13.6 2.60001 14.32 2.60001C15.04 2.60001 15.62 3.18001 15.62 3.90001C15.62 4.62001 15.04 5.20001 14.32 5.20001ZM9.47997 13.64C6.86997 13.64 4.74997 11.52 4.74997 8.91001C4.74997 6.30001 6.86997 4.18001 9.47997 4.18001C12.09 4.18001 14.21 6.30001 14.21 8.91001C14.21 11.52 12.09 13.64 9.47997 13.64ZM13.45 0.26001H5.51997C2.93997 0.26001 0.839966 2.36001 0.839966 4.94001V12.87C0.839966 15.45 2.93997 17.55 5.51997 17.55H13.45C16.03 17.55 18.13 15.45 18.13 12.87V4.95001C18.13 2.37001 16.03 0.27001 13.45 0.27001" fill="#1D1D1B"/>
<path d="M9.47996 5.35999C7.51996 5.35999 5.92996 6.94999 5.92996 8.90999C5.92996 10.87 7.51996 12.46 9.47996 12.46C11.44 12.46 13.03 10.87 13.03 8.90999C13.03 6.94999 11.44 5.35999 9.47996 5.35999Z" fill="#1D1D1B"/>
</svg>
