<svg width="21" height="20" viewBox="0 0 21 20" fill="none" xmlns="http://www.w3.org/2000/svg">
<path d="M20.0056 19.54V12.49C20.0056 9.04001 19.2656 6.39001 15.2256 6.39001C13.2856 6.39001 11.9856 7.45001 11.4556 8.46001H11.3956V6.71001H7.57562V19.54H11.5556V13.19C11.5556 11.52 11.8756 9.90001 13.9456 9.90001C16.0156 9.90001 16.0156 11.81 16.0156 13.3V19.55H19.9956L20.0056 19.54Z" fill="#1D1D1B"/>
<path d="M5.09566 6.71002H1.10565V19.54H5.09566V6.71002Z" fill="#1D1D1B"/>
<path d="M3.09564 0.320007C1.82564 0.320007 0.785645 1.35001 0.785645 2.63001C0.785645 3.91001 1.81564 4.96001 3.09564 4.96001C4.37564 4.96001 5.40564 3.90001 5.40564 2.63001C5.40564 1.36001 4.36564 0.320007 3.09564 0.320007" fill="#1D1D1B"/>
</svg>
