<svg width="19" height="20" viewBox="0 0 19 20" fill="none" xmlns="http://www.w3.org/2000/svg">
<path d="M6.00584 18.8807C1.83584 17.2907 -0.954156 12.5207 0.535844 7.54072C2.00584 2.61072 7.30584 -0.159283 12.2458 1.41072C17.1458 2.97072 19.8558 8.27072 18.2358 13.1807C16.6058 18.0907 11.4258 20.5907 6.70584 19.1407C6.70584 19.1207 6.71584 19.0907 6.73584 19.0707C7.43584 17.9907 7.87584 16.8007 8.14584 15.5507C8.21584 15.2207 8.31584 14.8907 8.40584 14.5407C8.85584 15.1707 9.46585 15.4707 10.1858 15.5507C11.1158 15.6607 11.9758 15.4307 12.7658 14.9507C13.7558 14.3507 14.4158 13.4807 14.8458 12.4207C15.3758 11.1007 15.5458 9.73072 15.1558 8.35072C14.6358 6.52072 13.4158 5.31072 11.6258 4.74072C9.66584 4.12072 7.75584 4.31072 5.98584 5.39072C4.62584 6.22072 3.85584 7.47072 3.57584 9.04072C3.34584 10.3007 3.55584 11.4707 4.22584 12.5607C4.48584 12.9907 4.81584 13.3507 5.26584 13.6007C5.55584 13.7607 5.63584 13.7207 5.71584 13.4107C5.79584 13.1007 5.87584 12.8007 5.93584 12.4907C5.95584 12.4007 5.93584 12.2807 5.88584 12.2107C4.67584 10.5807 5.08584 8.04072 6.85584 6.84072C8.31584 5.85072 9.89584 5.78072 11.4658 6.59072C12.4858 7.12072 13.0558 8.03072 13.2058 9.16072C13.3758 10.3507 13.2058 11.5107 12.6158 12.5807C12.2458 13.2507 11.7258 13.7707 10.9658 13.9907C10.6458 14.0807 10.3258 14.1107 9.99584 14.0307C9.22584 13.8407 8.78584 13.1407 8.99584 12.3707C9.19584 11.6307 9.42584 10.8907 9.62584 10.1507C9.72584 9.77072 9.79584 9.39072 9.72584 9.00072C9.54584 7.93072 8.49584 7.81072 7.88584 8.18072C7.32584 8.52072 7.05585 9.05072 6.93585 9.67072C6.81585 10.3007 6.88584 10.9107 7.10584 11.5207C7.13584 11.6007 7.13585 11.7107 7.11585 11.8007C6.77585 13.2807 6.42584 14.7607 6.07584 16.2407C5.93584 16.8407 5.93584 17.4607 5.96584 18.0707C5.97584 18.3407 6.00584 18.6107 6.02584 18.8907" fill="#1D1D1B"/>
</svg>
