<svg width="23" height="16" viewBox="0 0 23 16" fill="none" xmlns="http://www.w3.org/2000/svg">
<path d="M9.5455 11.13V4.51003L15.2955 7.82003L9.5455 11.13ZM22.3355 2.51003C22.0855 1.56003 21.3355 0.820027 20.3855 0.560027C18.6555 0.0900269 11.7455 0.0900269 11.7455 0.0900269C11.7455 0.0900269 4.83551 0.0900269 3.10551 0.540027C2.17551 0.800027 1.4155 1.56003 1.1655 2.51003C0.705504 4.24003 0.705505 7.82003 0.705505 7.82003C0.705505 7.82003 0.705504 11.42 1.1655 13.13C1.4155 14.08 2.16551 14.82 3.10551 15.08C4.85551 15.55 11.7455 15.55 11.7455 15.55C11.7455 15.55 18.6555 15.55 20.3855 15.1C21.3355 14.84 22.0755 14.1 22.3355 13.15C22.7855 11.42 22.7855 7.84003 22.7855 7.84003C22.7855 7.84003 22.8055 4.24003 22.3355 2.51003Z" fill="#1D1D1B"/>
</svg>
