<svg width="214" height="77" viewBox="0 0 214 77" fill="none" xmlns="http://www.w3.org/2000/svg">
<path d="M209.04 38.17L203.819 49.13L198.597 38.17H194.466L201.928 52.84V63.1H205.699V52.84L213.171 38.17H209.04Z" fill="#1D1D1B"/>
<path d="M47.5713 40.31C47.5713 41.07 46.9511 41.68 46.201 41.68H35.0483C34.2981 41.68 33.678 41.07 33.678 40.31V29.16C33.678 28.41 34.2981 27.8 35.0483 27.8H46.201C46.9511 27.8 47.5713 28.41 47.5713 29.16V40.31Z" fill="#1D1D1B"/>
<path d="M42.0999 55.59C42.0999 56.2 41.6098 56.68 40.9997 56.68H32.0475C31.4474 56.68 30.9473 56.19 30.9473 55.59V46.63C30.9473 46.03 31.4474 45.53 32.0475 45.53H40.9997C41.5998 45.53 42.0999 46.03 42.0999 46.63V55.59Z" fill="#1D1D1B"/>
<path d="M27.7364 60.1H34.8581C35.3382 60.1 35.7383 60.49 35.7383 60.98V68.1C35.7383 68.58 35.3482 68.97 34.8681 68.97H27.7464C27.2663 68.97 26.8662 68.58 26.8662 68.09V60.97C26.8662 60.49 27.2563 60.09 27.7464 60.09L27.7364 60.1Z" fill="#1D1D1B"/>
<path d="M23.1056 72.89C23.1056 73.24 22.8155 73.53 22.4654 73.53H17.2642C16.9141 73.53 16.624 73.24 16.624 72.89V67.68C16.624 67.32 16.9041 67.04 17.2642 67.04H22.4654C22.8155 67.04 23.1056 67.32 23.1056 67.68V72.89Z" fill="#1D1D1B"/>
<path d="M13.6631 75.58C13.6631 75.83 13.4631 76.03 13.213 76.03H9.56217C9.31211 76.03 9.11206 75.83 9.11206 75.58V71.92C9.11206 71.67 9.31211 71.47 9.56217 71.47H13.213C13.4631 71.47 13.6631 71.67 13.6631 71.92V75.58Z" fill="#1D1D1B"/>
<path d="M1.37033 34.68H12.523C13.2732 34.68 13.8833 35.29 13.8833 36.04V47.19C13.8833 47.94 13.2732 48.55 12.523 48.55H1.36032C0.610145 48.55 0 47.94 0 47.19V36.04C0 35.29 0.610145 34.67 1.37033 34.67V34.68Z" fill="#1D1D1B"/>
<path d="M6.56121 19.66H15.5233C16.1235 19.66 16.6136 20.15 16.6136 20.75V29.71C16.6136 30.31 16.1235 30.81 15.5133 30.81H6.56121C5.96106 30.81 5.47095 30.32 5.47095 29.72V20.76C5.47095 20.16 5.96106 19.67 6.56121 19.67V19.66Z" fill="#1D1D1B"/>
<path d="M11.833 8.25C11.833 7.77 12.2231 7.38 12.7032 7.38H19.8349C20.315 7.38 20.7051 7.77 20.7051 8.25V15.38C20.7051 15.86 20.315 16.25 19.8349 16.25H12.7032C12.2231 16.25 11.833 15.86 11.833 15.38V8.25Z" fill="#1D1D1B"/>
<path d="M25.106 2.82001H30.3172C30.6673 2.82001 30.9574 3.11001 30.9574 3.46001V8.67001C30.9574 9.02001 30.6773 9.31001 30.3172 9.31001H25.106C24.7559 9.31001 24.4658 9.03001 24.4658 8.67001V3.46001C24.4658 3.11001 24.7459 2.82001 25.106 2.82001Z" fill="#1D1D1B"/>
<path d="M34.3583 0.320007H38.0192C38.2692 0.320007 38.4693 0.520007 38.4693 0.770007V4.42001C38.4693 4.67001 38.2692 4.87001 38.0192 4.87001H34.3683C34.1183 4.87001 33.9182 4.67001 33.9182 4.42001V0.770007C33.9182 0.520007 34.1183 0.320007 34.3683 0.320007H34.3583Z" fill="#1D1D1B"/>
<path d="M85.3105 14.62V33.79H83.6401V11.74H85.3105L98.0436 30.85V11.74H99.714V33.79H98.0436L85.3105 14.62Z" fill="#1D1D1B"/>
<path d="M106.525 11.74H119.909V13.23H108.206V21.94H118.178V23.42H108.206V32.31H119.909V33.8H106.525V11.74Z" fill="#1D1D1B"/>
<path d="M139.883 33.8L134.682 14.59L129.481 33.8H127.78L122.259 11.74H124.029L128.671 30.91L133.812 11.74H135.552L140.693 30.91L145.335 11.74H147.105L141.594 33.8H139.883Z" fill="#1D1D1B"/>
<path d="M94.0622 41.56V63.1H90.2813V41.56H83.4197V38.17H100.934V41.56H94.0622Z" fill="#1D1D1B"/>
<path d="M114.627 41.56H109.026V49.37H114.627C117.148 49.37 118.868 47.93 118.868 45.48C118.868 43.03 117.158 41.56 114.627 41.56ZM119.008 63.1L113.757 52.59H109.036V63.1H105.255V38.17H114.917C119.649 38.17 122.659 41.22 122.659 45.45C122.659 49.03 120.489 51.3 117.678 52.07L123.429 63.1H119.018H119.008Z" fill="#1D1D1B"/>
<path d="M128.171 63.1V38.17H144.114V41.56H131.962V48.85H142.324V52.21H131.962V59.7H144.114V63.1H128.171Z" fill="#1D1D1B"/>
<path d="M164.599 63.1L153.076 45.55V63.1H149.295V38.17H152.756L164.279 55.67V38.17H168.06V63.1H164.599Z" fill="#1D1D1B"/>
<path d="M187.185 43.24C186.135 42.08 184.724 41.56 182.944 41.56H178.353V59.7H182.944C184.724 59.7 186.125 59.17 187.185 58.02C188.475 56.59 188.515 53.89 188.515 50.46C188.515 47.03 188.475 44.68 187.185 43.24ZM189.775 60.75C188.205 62.32 185.924 63.1 183.324 63.1H174.572V38.17H183.324C185.924 38.17 188.195 38.94 189.775 40.51C192.466 43.21 192.296 46.85 192.296 50.46C192.296 54.07 192.466 58.05 189.775 60.75Z" fill="#1D1D1B"/>
<path d="M69.106 7.44H67.896V66.44H69.106V7.44Z" fill="#1D1D1B"/>
</svg>
