<?xml version="1.0" encoding="UTF-8"?>
<svg id="Warstwa_2" data-name="Warstwa 2" xmlns="http://www.w3.org/2000/svg" viewBox="0 0 87.73 97.29">
  <defs>
    <style>
      .cls-1 {
        fill: #fff;
      }

      .cls-1, .cls-2 {
        stroke-width: 0px;
      }

      .cls-2 {
        fill: #1d1d1b;
      }
    </style>
  </defs>
  <g id="Warstwa_1-2" data-name="Warstwa 1">
    <g>
      <path class="cls-2" d="M43.86,0C19.73,0,.14,19.5,0,43.61v.26c0,20.48,14.03,37.67,32.99,42.51,4.14,6.48,8.14,10.91,10.88,10.91s6.59-4.41,10.72-10.87c19.04-4.79,33.14-22.01,33.14-42.54v-.26C87.59,19.5,68,0,43.86,0Z"/>
      <path class="cls-1" d="M23.84,18.75h41.2c6.47,0,11.72,5.25,11.72,11.72v.25c0,6.68-5.43,12.11-12.11,12.11H24.22c-6.68,0-12.11-5.43-12.11-12.11v-.25c0-6.47,5.25-11.72,11.72-11.72Z"/>
      <path class="cls-1" d="M23.86,45.58h41.15c6.48,0,11.75,5.26,11.75,11.75v.31c0,6.7-5.44,12.14-12.14,12.14H24.25c-6.7,0-12.14-5.44-12.14-12.14v-.31c0-6.48,5.26-11.75,11.75-11.75Z"/>
      <circle class="cls-2" cx="44.44" cy="12.25" r="8.75"/>
      <path class="cls-1" d="M45.91,16.18c-.14-.14-.35-.21-.55-.17-1.3.3-2.72-.05-3.74-1.07-1.08-1.08-1.41-2.63-1-4,0-.01.02-.02.03,0l2.07,2.07c.76.76,1.64,1.03,2.73-.12,1.02-1.07.51-1.87-.18-2.57l-2-2s0-.03,0-.03c1.37-.42,2.92-.09,4,1,1.01,1.01,1.37,2.43,1.07,3.73-.05.2.03.41.17.55l1.67,1.68c.47-.9.74-1.91.74-3,0-3.59-2.91-6.5-6.5-6.5s-6.5,2.91-6.5,6.5,2.91,6.5,6.5,6.5c1.16,0,2.25-.31,3.19-.84-.54-.55-1.17-1.18-1.72-1.73Z"/>
      <circle class="cls-2" cx="43.29" cy="76.29" r="8.75"/>
      <path class="cls-1" d="M43.29,69.78c-3.59,0-6.5,2.91-6.5,6.5s2.91,6.5,6.5,6.5,6.5-2.91,6.5-6.5-2.91-6.5-6.5-6.5ZM47.83,77.56h-3.26v3.26c0,.18-.15.32-.32.32h-1.91c-.18,0-.32-.15-.32-.32v-3.26h-3.26c-.18,0-.32-.15-.32-.32v-1.91c0-.18.15-.32.32-.32h3.26v-3.26c0-.18.15-.32.32-.32h1.91c.18,0,.32.15.32.32v3.26h3.26c.18,0,.32.15.32.32v1.91c0,.18-.15.32-.32.32Z"/>
    </g>
  </g>
</svg>