<?xml version="1.0" encoding="UTF-8"?>
<svg id="Warstwa_2" data-name="Warstwa 2" xmlns="http://www.w3.org/2000/svg" viewBox="0 0 87.73 97.29">
  <defs>
    <style>
      .cls-1 {
        fill: #e30613;
      }

      .cls-1, .cls-2 {
        stroke-width: 0px;
      }

      .cls-2 {
        fill: #fff;
      }
    </style>
  </defs>
  <g id="Warstwa_1-2" data-name="Warstwa 1">
    <g>
      <path class="cls-1" d="M43.86,0C19.73,0,.14,19.5,0,43.61v.26c0,20.48,14.03,37.67,32.99,42.51,4.14,6.48,8.14,10.91,10.88,10.91s6.59-4.41,10.72-10.87c19.04-4.79,33.14-22.01,33.14-42.54v-.26C87.59,19.5,68,0,43.86,0Z"/>
      <path class="cls-2" d="M24.95,44.89h37.83c7.4,0,13.41,6.01,13.41,13.41h0c0,7.64-6.21,13.85-13.85,13.85H25.39c-7.64,0-13.85-6.21-13.85-13.85h0c0-7.4,6.01-13.41,13.41-13.41Z"/>
      <g>
        <circle class="cls-1" cx="43.87" cy="23.38" r="20.62"/>
        <path class="cls-2" d="M47.34,32.64c-.34-.34-.82-.5-1.29-.39-3.07.71-6.42-.13-8.8-2.52-2.55-2.55-3.33-6.2-2.35-9.43,0-.03.05-.04.08-.02l4.87,4.87c1.8,1.8,3.87,2.42,6.44-.29,2.4-2.52,1.2-4.42-.42-6.05l-4.71-4.71s-.01-.07.02-.08c3.23-.98,6.88-.2,9.43,2.35,2.39,2.39,3.22,5.73,2.52,8.8-.11.47.06.96.4,1.3l3.93,3.96c1.1-2.11,1.73-4.51,1.73-7.06,0-8.46-6.86-15.32-15.32-15.32s-15.32,6.86-15.32,15.32,6.86,15.32,15.32,15.32c2.74,0,5.3-.73,7.52-1.98-1.28-1.3-2.75-2.78-4.05-4.08Z"/>
      </g>
    </g>
  </g>
</svg>