<?xml version="1.0" encoding="UTF-8"?>
<svg id="Warstwa_2" data-name="Warstwa 2" xmlns="http://www.w3.org/2000/svg" viewBox="0 0 87.73 97.29">
  <defs>
    <style>
      .cls-1 {
        fill: #fff;
      }

      .cls-1, .cls-2 {
        stroke-width: 0px;
      }

      .cls-2 {
        fill: #f9b233;
      }
    </style>
  </defs>
  <g id="Warstwa_1-2" data-name="Warstwa 1">
    <g>
      <path class="cls-2" d="M43.86,0C19.73,0,.14,19.5,0,43.61v.26c0,20.48,14.03,37.67,32.99,42.51,4.14,6.48,8.14,10.91,10.88,10.91s6.59-4.41,10.72-10.87c19.04-4.79,33.14-22.01,33.14-42.54v-.26C87.59,19.5,68,0,43.86,0Z"/>
      <path class="cls-1" d="M24.95,44.89h37.83c7.4,0,13.41,6.01,13.41,13.41h0c0,7.64-6.21,13.85-13.85,13.85H25.39c-7.64,0-13.85-6.21-13.85-13.85h0c0-7.4,6.01-13.41,13.41-13.41Z"/>
      <g>
        <circle class="cls-2" cx="44.35" cy="23.38" r="20.62"/>
        <path class="cls-1" d="M44.35,7.94c-8.49,0-15.38,6.89-15.38,15.38s6.89,15.38,15.38,15.38,15.38-6.89,15.38-15.38-6.89-15.38-15.38-15.38ZM55.09,26.34h-7.71v7.71c0,.42-.34.77-.77.77h-4.52c-.42,0-.77-.34-.77-.77v-7.71h-7.71c-.42,0-.77-.34-.77-.77v-4.52c0-.42.34-.77.77-.77h7.71v-7.71c0-.42.34-.77.77-.77h4.52c.42,0,.77.34.77.77v7.71h7.71c.42,0,.77.34.77.77v4.52c0,.42-.34.77-.77.77Z"/>
      </g>
    </g>
  </g>
</svg>