<?xml version="1.0" encoding="UTF-8"?>
<svg id="Warstwa_1" data-name="Warstwa 1" xmlns="http://www.w3.org/2000/svg" viewBox="0 0 21 21">
  <defs>
    <style>
      .cls-1 {
        fill: #000;
        stroke-width: 0px;
      }
    </style>
  </defs>
  <path class="cls-1" d="M18.89,7.82H2.22v-2.23h16.68v2.23ZM17.78,17.83H3.33v-8.9h14.45v8.9ZM19.45,4.49H1.66c-.31,0-.55.25-.55.55v3.33c0,.31.25.55.55.55h.56v9.45c0,.31.25.55.55.55h15.56c.31,0,.55-.25.55-.55v-9.45h.56c.31,0,.55-.25.55-.55v-3.33c0-.31-.25-.55-.55-.55"/>
  <path class="cls-1" d="M9.44,11.15h2.22c.31,0,.56.25.56.56s-.25.56-.56.56h-2.22c-.31,0-.56-.25-.56-.56s.25-.56.56-.56M9.44,13.38h2.22c.92,0,1.67-.75,1.67-1.66s-.75-1.67-1.67-1.67h-2.22c-.92,0-1.66.75-1.66,1.67s.75,1.66,1.66,1.66"/>
</svg>