<svg xmlns="http://www.w3.org/2000/svg" xmlns:xlink="http://www.w3.org/1999/xlink" version="1.1" id="Warstwa_1" x="0px" y="0px" width="42.52px" height="42.52px" viewBox="0 0 42.52 42.52" xml:space="preserve"> <g> <path fill-rule="evenodd" clip-rule="evenodd" d="M22.819,0.346c0.375,0.049,0.751,0.098,1.126,0.148 c0.555,0.074,0.886,0.439,0.827,0.911c-0.061,0.478-0.478,0.768-1.017,0.708C19.07,1.597,14.73,2.596,10.832,5.236 c-4.836,3.275-7.789,7.837-8.416,13.654c-0.872,8.089,2.258,14.437,9.087,18.81c6.958,4.455,16.374,3.604,22.568-1.831 c3.609-3.164,5.834-7.107,6.512-11.859c0.723-5.072-0.433-9.724-3.367-13.928c-0.038-0.056-0.078-0.111-0.122-0.163 c-0.016-0.02-0.043-0.027-0.134-0.08c0,0.283,0.009,0.533-0.002,0.782c-0.019,0.475-0.348,0.814-0.785,0.827 c-0.432,0.012-0.82-0.32-0.83-0.787c-0.023-1.048-0.023-2.097-0.003-3.144c0.011-0.491,0.354-0.795,0.854-0.799 c1.008-0.01,2.015-0.01,3.022,0c0.507,0.005,0.841,0.339,0.845,0.804c0.003,0.465-0.328,0.803-0.831,0.821 c-0.39,0.014-0.782,0.002-1.236,0.002c0.099,0.148,0.157,0.248,0.227,0.34c2.437,3.267,3.825,6.926,4.138,10.993 c0.009,0.12,0.043,0.236,0.066,0.353c0,0.844,0,1.688,0,2.533c-0.023,0.104-0.053,0.21-0.068,0.314 c-0.142,0.969-0.231,1.946-0.429,2.905c-1.676,8.105-8.61,14.741-16.773,16.064c-0.774,0.126-1.557,0.214-2.335,0.323 c-0.872,0-1.743,0-2.615,0c-0.09-0.023-0.18-0.053-0.272-0.067c-0.955-0.138-1.918-0.23-2.862-0.419 C8.96,40.064,2.247,33.095,0.925,24.944c-0.128-0.788-0.219-1.585-0.327-2.378c0-0.873,0-1.743,0-2.614 c0.023-0.119,0.052-0.237,0.07-0.355c0.139-0.94,0.228-1.892,0.42-2.821C2.777,8.62,9.661,2.018,17.866,0.667 c0.776-0.127,1.559-0.216,2.337-0.322C21.076,0.346,21.947,0.346,22.819,0.346z"/> <path fill-rule="evenodd" clip-rule="evenodd" d="M21.506,7.216c-2.541,0.076-4.897,0.728-7.078,2.014 c-0.141,0.082-0.277,0.175-0.424,0.244c-0.406,0.188-0.848,0.052-1.063-0.318c-0.223-0.383-0.126-0.868,0.288-1.1 c0.745-0.419,1.493-0.848,2.28-1.176c8.859-3.689,18.85,1.368,21.145,10.686c2.138,8.689-3.567,17.478-12.356,19.033 c-8.49,1.503-16.554-4.046-18.114-12.505c-0.722-3.918-0.004-7.6,2.055-11.015c0.308-0.511,0.771-0.663,1.194-0.409 c0.442,0.265,0.515,0.732,0.184,1.279c-1.613,2.66-2.318,5.552-1.966,8.633c0.605,5.296,3.304,9.214,8.184,11.4 c8.248,3.696,17.569-1.188,19.377-10.043C36.742,16.433,31.638,8.89,24.093,7.53C23.24,7.376,22.369,7.318,21.506,7.216z"/> <path fill-rule="evenodd" clip-rule="evenodd" d="M18.693,21.113c0.048-0.208,0.084-0.554,0.21-0.862 c0.108-0.266,0.046-0.412-0.142-0.596c-0.808-0.789-1.6-1.595-2.402-2.391c-0.273-0.27-0.415-0.576-0.278-0.956 c0.213-0.592,0.905-0.716,1.399-0.234c0.789,0.77,1.57,1.548,2.336,2.342c0.241,0.25,0.433,0.347,0.796,0.196 c0.594-0.247,1.238-0.243,1.833,0.014c0.333,0.145,0.505,0.046,0.729-0.179c1.658-1.672,3.326-3.334,4.991-5 c0.077-0.076,0.151-0.157,0.233-0.229c0.379-0.336,0.851-0.343,1.173-0.019c0.322,0.323,0.33,0.806-0.023,1.171 c-0.731,0.752-1.479,1.486-2.221,2.227c-1.001,1.001-1.996,2.008-3.007,2.999c-0.227,0.223-0.296,0.394-0.18,0.73 c0.394,1.131,0.145,2.149-0.723,2.986c-0.798,0.77-2.029,0.981-3.035,0.514C19.294,23.321,18.746,22.444,18.693,21.113z M21.524,20.092c-0.657-0.006-1.17,0.491-1.181,1.144c-0.011,0.655,0.487,1.177,1.135,1.193c0.667,0.018,1.202-0.503,1.203-1.168 C22.684,20.608,22.178,20.097,21.524,20.092z"/> <path fill-rule="evenodd" clip-rule="evenodd" d="M32.622,22.08c-0.176,0-0.353,0.008-0.528-0.002 c-0.433-0.027-0.746-0.329-0.777-0.74c-0.032-0.422,0.256-0.82,0.689-0.864c0.401-0.041,0.813-0.039,1.216-0.004 c0.445,0.037,0.731,0.405,0.716,0.839c-0.018,0.432-0.333,0.746-0.787,0.769C32.974,22.088,32.797,22.08,32.622,22.08z"/> <path fill-rule="evenodd" clip-rule="evenodd" d="M20.69,32.38c0-0.177-0.009-0.354,0.001-0.528 c0.025-0.437,0.323-0.751,0.732-0.787c0.423-0.038,0.824,0.243,0.87,0.68c0.044,0.413,0.044,0.841,0.002,1.256 c-0.046,0.44-0.431,0.714-0.865,0.682c-0.412-0.029-0.712-0.34-0.738-0.775C20.681,32.732,20.69,32.556,20.69,32.38z"/> <path fill-rule="evenodd" clip-rule="evenodd" d="M22.333,10.124c0,0.176,0.008,0.353-0.002,0.529 c-0.024,0.458-0.331,0.778-0.758,0.803c-0.424,0.024-0.809-0.267-0.85-0.707c-0.039-0.402-0.039-0.814,0-1.217 c0.042-0.442,0.418-0.721,0.854-0.696c0.43,0.022,0.731,0.34,0.755,0.801C22.34,9.799,22.333,9.961,22.333,10.124z"/> <path fill-rule="evenodd" clip-rule="evenodd" d="M10.402,20.438c0.176,0,0.353-0.008,0.529,0.002 c0.43,0.027,0.745,0.332,0.775,0.742c0.03,0.411-0.233,0.801-0.652,0.849c-0.427,0.05-0.868,0.05-1.296,0.008 c-0.438-0.044-0.707-0.438-0.671-0.873c0.034-0.41,0.348-0.705,0.786-0.728C10.05,20.43,10.227,20.438,10.402,20.438z"/> <path fill-rule="evenodd" clip-rule="evenodd" d="M27.973,1.993c-0.012,0.443-0.381,0.801-0.819,0.792 c-0.433-0.008-0.808-0.388-0.804-0.819c0.002-0.453,0.393-0.823,0.85-0.806C27.649,1.177,27.985,1.539,27.973,1.993z"/> <path fill-rule="evenodd" clip-rule="evenodd" d="M11.054,11.62c-0.439-0.004-0.807-0.371-0.808-0.808 c-0.001-0.432,0.371-0.811,0.804-0.818c0.453-0.007,0.833,0.377,0.823,0.834C11.863,11.271,11.5,11.624,11.054,11.62z"/> </g> </svg>