<?xml version="1.0" encoding="UTF-8"?>
<svg id="Warstwa_2" data-name="Warstwa 2" xmlns="http://www.w3.org/2000/svg" xmlns:xlink="http://www.w3.org/1999/xlink" viewBox="0 0 26.43 25">
  <defs>
    <style>
      .cls-1 {
        fill: none;
      }

      .cls-1, .cls-2, .cls-3 {
        stroke-width: 0px;
      }

      .cls-4 {
        clip-path: url(#clippath);
      }

      .cls-2 {
        fill: #1d1d1b;
      }

      .cls-3 {
        fill: #fff;
      }
    </style>
    <clipPath id="clippath">
      <rect class="cls-1" y="1.47" width="26.43" height="22.06"/>
    </clipPath>
  </defs>
  <g id="Warstwa_1-2" data-name="Warstwa 1">
    <g>
      <rect class="cls-3" x=".72" width="25" height="25"/>
      <g class="cls-4">
        <path class="cls-2" d="M20.47,15.13c.25,0,.43.07.54.3v4.14c-.06.14-.16.23-.29.29h-11.25s-.06-.02-.09-.03c-1.29-.18-2.23-1.5-1.96-2.78.25-1.15,1.19-1.92,2.37-1.92,1.42,0,2.85,0,4.27,0,2.14,0,4.27,0,6.41,0M9.68,17.91h.01c.21,0,.4-.19.39-.39,0-.23-.17-.41-.4-.41h0c-.21,0-.41.18-.41.38,0,.22.19.42.4.42M20.47,14.33h0c-2.26,0-4.51,0-6.41,0h-4.27c-1.56,0-2.83,1.03-3.15,2.55-.18.83.01,1.71.52,2.43.49.7,1.24,1.18,2.06,1.3,0,0,.02,0,.03,0,.07.02.15.03.23.03h11.25c.12,0,.23-.03.34-.07.31-.15.55-.39.69-.7.05-.1.07-.21.07-.33v-4.14c0-.12-.03-.24-.08-.35-.14-.28-.48-.75-1.26-.75"/>
        <path class="cls-2" d="M11.76,6.19c.23.11.3.29.3.54,0,.23-.05.43-.17.63-1.5,2.58-2.99,5.17-4.48,7.75-.02.04-.06.08-.08.11V6.48c.06-.13.16-.23.29-.29h4.14ZM11.76,5.38h-4.14c-.12,0-.24.03-.35.08-.3.15-.54.38-.68.68-.05.11-.07.22-.07.34v8.74c0,.35.22.66.56.76.08.03.16.04.25.04.25,0,.5-.12.65-.33v-.02s.08-.09.12-.16c.59-1.01,1.17-2.02,1.75-3.02.9-1.55,1.82-3.16,2.74-4.73.19-.33.28-.66.28-1.03,0-.78-.47-1.12-.75-1.26-.11-.05-.23-.08-.36-.08"/>
        <path class="cls-2" d="M18.18,9.95c.15,0,.27.09.38.28.62,1.08,1.24,2.16,1.87,3.23.18.3.11.5-.18.69-.22.14-.44.19-.7.19-1.66,0-3.33,0-4.99,0h-4.04s0-.02,0-.03c.32-.18.64-.37.95-.55,2.14-1.24,4.28-2.47,6.42-3.71.11-.06.21-.1.3-.1M18.18,9.14h0c-.23,0-.47.07-.7.21l-2.24,1.29c-1.39.8-2.79,1.61-4.18,2.41-.11.06-.22.13-.33.19-.21.12-.41.24-.62.36-.33.19-.48.58-.37.94.01.04.04.11.08.19.15.24.41.4.69.4h4.04c1.46,0,3.2,0,4.99,0,.43,0,.8-.1,1.13-.31h0c.66-.43.83-1.11.44-1.77-.61-1.05-1.22-2.11-1.83-3.16l-.04-.07c-.34-.59-.82-.68-1.07-.68"/>
        <path class="cls-2" d="M13.43,6.67c.09,0,.19.03.3.1,1.08.62,2.16,1.24,3.23,1.86.31.18.35.38.19.69-.12.23-.28.39-.51.52-2.57,1.47-5.12,2.95-7.68,4.43-.05.03-.1.06-.15.09,0,0,0-.02-.02-.02.4-.68.79-1.37,1.18-2.06,1.03-1.77,2.05-3.55,3.08-5.32.11-.19.23-.28.38-.28M13.43,5.86c-.25,0-.73.09-1.07.68-.75,1.3-1.5,2.6-2.25,3.9l-.82,1.42-.2.35c-.33.57-.65,1.14-.98,1.71-.16.27-.14.61.03.86.09.15.23.26.4.32.09.03.19.05.28.05.14,0,.28-.04.4-.11l.05-.03s.07-.04.1-.06c.7-.4,1.4-.81,2.1-1.21,1.83-1.05,3.71-2.14,5.57-3.21.37-.22.64-.49.82-.84.36-.69.17-1.36-.49-1.75l-.31-.18c-.97-.56-1.95-1.12-2.93-1.68-.24-.14-.47-.2-.7-.2"/>
      </g>
    </g>
  </g>
</svg>