<?xml version="1.0" encoding="UTF-8"?>
<svg id="Warstwa_2" data-name="Warstwa 2" xmlns="http://www.w3.org/2000/svg" xmlns:xlink="http://www.w3.org/1999/xlink" viewBox="0 0 25 25">
  <defs>
    <style>
      .cls-1 {
        fill: none;
      }

      .cls-1, .cls-2, .cls-3 {
        stroke-width: 0px;
      }

      .cls-4 {
        clip-path: url(#clippath);
      }

      .cls-2 {
        fill: #1d1d1b;
      }

      .cls-3 {
        fill: #fff;
      }
    </style>
    <clipPath id="clippath">
      <rect class="cls-1" x="1.28" y="4.03" width="22.43" height="18.72"/>
    </clipPath>
  </defs>
  <g id="Warstwa_1-2" data-name="Warstwa 1">
    <g>
      <rect class="cls-3" width="25" height="25"/>
      <g class="cls-4">
        <path class="cls-2" d="M6.12,9.63h1v3.69c.85-.88,1.69-1.75,2.51-2.61.24.25.47.49.71.75-.43.44-.87.89-1.34,1.37h6.94c-.45-.46-.88-.92-1.31-1.37.25-.25.47-.49.71-.73.82.85,1.66,1.72,2.5,2.59,0,0,.02-.01.03-.02v-3.68h1v7.51h-.99v-3.74c-.85.88-1.69,1.75-2.51,2.61-.26-.26-.49-.5-.73-.75.43-.44.87-.9,1.34-1.38h-6.91c.43.45.87.91,1.3,1.35-.26.27-.49.51-.72.76-.82-.86-1.66-1.72-2.5-2.59,0,0-.02.01-.03.02v3.73h-1v-7.51Z"/>
      </g>
    </g>
  </g>
</svg>