<?xml version="1.0" encoding="UTF-8"?>
<svg id="Warstwa_1" data-name="Warstwa 1" xmlns="http://www.w3.org/2000/svg" viewBox="0 0 21 21">
  <defs>
    <style>
      .cls-1 {
        fill: #000;
        stroke-width: 0px;
      }
    </style>
  </defs>
  <path class="cls-1" d="M17.69,5.01h-3.54c-.39,0-.71.32-.71.71s.32.71.71.71h3.54c.39,0,.71.32.71.71v9.21c0,.39-.32.71-.71.71H3.52c-.39,0-.71-.32-.71-.71V7.14c0-.39.32-.71.71-.71h3.54c.39,0,.71-.32.71-.71s-.32-.71-.71-.71h-3.54c-1.17,0-2.13.95-2.13,2.13v9.21c0,1.17.95,2.12,2.13,2.12h14.17c1.17,0,2.13-.95,2.13-2.12V7.14c0-1.17-.95-2.13-2.13-2.13"/>
  <path class="cls-1" d="M14.63,8.76c-.27-.26-.71-.26-.98,0l-2.33,2.33V3.4c0-.39-.32-.71-.71-.71s-.71.32-.71.71v7.7l-2.33-2.33c-.28-.27-.73-.26-1,.02-.26.27-.26.71,0,.98l3.54,3.54c.28.28.72.28,1,0,0,0,0,0,0,0l3.54-3.54c.27-.28.26-.73-.02-1"/>
</svg>