<?xml version="1.0" encoding="UTF-8"?>
<svg id="Warstwa_2" data-name="Warstwa 2" xmlns="http://www.w3.org/2000/svg" xmlns:xlink="http://www.w3.org/1999/xlink" viewBox="0 0 25 25">
  <defs>
    <style>
      .cls-1 {
        stroke: #1d1d1b;
        stroke-miterlimit: 10;
        stroke-width: 1.06px;
      }

      .cls-1, .cls-2 {
        fill: none;
      }

      .cls-3 {
        fill: #1d1d1b;
        fill-rule: evenodd;
      }

      .cls-3, .cls-2, .cls-4 {
        stroke-width: 0px;
      }

      .cls-5 {
        clip-path: url(#clippath-1);
      }

      .cls-6 {
        clip-path: url(#clippath);
      }

      .cls-4 {
        fill: #fff;
      }
    </style>
    <clipPath id="clippath">
      <rect class="cls-2" x="4.85" y="4.72" width="15.3" height="15.56"/>
    </clipPath>
    <clipPath id="clippath-1">
      <rect class="cls-2" x="2.28" y="2.53" width="20.43" height="19.94"/>
    </clipPath>
  </defs>
  <g id="Warstwa_1-2" data-name="Warstwa 1">
    <g>
      <rect class="cls-4" width="25" height="25"/>
      <g class="cls-6">
        <path class="cls-1" d="M19.62,9.76v.22c-.07.16-.2.25-.35.34-2.15,1.33-4.29,2.67-6.44,4.01-.23.15-.43.15-.67,0-2.14-1.34-4.29-2.68-6.44-4.01-.14-.09-.27-.18-.35-.34v-.22c.07-.16.21-.25.35-.34,2.22-1.39,4.44-2.78,6.66-4.17h.22c.08.05.16.09.23.14,2.14,1.34,4.28,2.68,6.43,4.02.14.09.27.18.35.34Z"/>
      </g>
      <g class="cls-5">
        <path class="cls-3" d="M12.62,20.41h-.23c-.08-.05-.16-.09-.24-.15-2.21-1.39-4.42-2.77-6.64-4.16-.15-.09-.28-.19-.36-.35v-.23c.08-.16.21-.26.36-.35.13-.07.27-.15.39-.24.09-.07.16-.05.25,0,2,1.25,4,2.49,6,3.74.25.15.45.15.7,0,1.9-1.19,3.81-2.38,5.72-3.57.13-.08.27-.22.4-.22.13,0,.27.14.41.22.18.11.38.21.47.42v.23c-.08.16-.21.26-.36.35-2.29,1.43-4.59,2.87-6.88,4.3"/>
        <path class="cls-3" d="M19.86,12.98v.23c-.08.16-.21.26-.36.35-2.22,1.38-4.44,2.76-6.65,4.14-.24.15-.45.15-.69,0-2.21-1.39-4.43-2.76-6.65-4.14-.15-.09-.28-.19-.36-.35v-.23c.08-.16.21-.26.36-.35.13-.07.26-.15.39-.24.09-.07.16-.05.25,0,2,1.25,4.01,2.5,6.02,3.75.24.15.44.15.68,0,1.91-1.2,3.82-2.38,5.74-3.57.13-.08.27-.23.4-.23.13,0,.27.14.4.22.18.11.38.21.47.42"/>
      </g>
    </g>
  </g>
</svg>