<svg xmlns="http://www.w3.org/2000/svg" width="32" height="33" viewBox="0 0 32 33" fill="none"><g clip-path="url(#clip0_54_5177)"><path d="M27.727 28.0708C27.4537 28.3428 27.1804 28.59 26.9071 28.862C26.4599 29.2577 26.0127 29.678 25.5904 30.1479C24.8947 30.8402 24.0997 31.1617 23.0562 31.1617C22.9568 31.1617 22.8574 31.1617 22.7581 31.1617C20.7456 31.038 18.8823 30.2962 17.491 29.6533C13.6649 27.8977 10.3109 25.4002 7.5034 22.2598C5.19284 19.6387 3.65247 17.1907 2.63384 14.5943C2.01272 12.987 1.78912 11.7507 1.88849 10.5885C1.96303 9.84667 2.26116 9.22848 2.83259 8.68448L5.14315 6.50847C5.46613 6.21174 5.81396 6.06338 6.16179 6.06338C6.58415 6.06338 6.93197 6.31065 7.15558 6.50847C7.57794 6.87938 7.95061 7.27502 8.37297 7.67066C8.59657 7.86848 8.79533 8.0663 9.01893 8.28884L10.8574 10.0445C11.5779 10.7121 11.5779 11.355 10.8574 12.0227C10.6587 12.1958 10.4599 12.3936 10.286 12.5667C9.71458 13.1107 9.168 13.63 8.59657 14.1245C8.59657 14.1245 8.57172 14.1245 8.57172 14.1492C8.0003 14.6932 8.09967 15.2372 8.2239 15.6082V15.6576C8.72079 16.7703 9.3916 17.7842 10.4351 19.0205C12.2984 21.1965 14.2612 22.9027 16.4475 24.1886C16.7208 24.3617 17.0189 24.4853 17.2674 24.6089C17.5158 24.7326 17.7394 24.8315 17.9382 24.9551C17.963 24.9551 17.9879 24.9798 18.0127 25.0046C18.2363 25.1035 18.4599 25.1529 18.6835 25.1529C19.255 25.1529 19.6028 24.8315 19.7022 24.7078L22.0127 22.5318C22.2363 22.3093 22.609 22.062 23.0314 22.062C23.4537 22.062 23.8015 22.3093 24.0003 22.5318L27.727 26.0678C28.4227 26.7108 28.4227 27.4031 27.727 28.0708ZM25.2922 21.3202C24.6463 20.6773 23.8512 20.3311 23.0065 20.3311C22.1618 20.3311 21.3668 20.6773 20.6959 21.3202L18.5593 23.3478C18.3854 23.2489 18.2115 23.1747 18.0376 23.1006C17.7891 22.9769 17.5655 22.878 17.3668 22.7544C15.3543 21.5427 13.5407 19.9849 11.8015 17.9573C10.9568 16.9434 10.3854 16.1027 9.98787 15.2372C10.5345 14.7674 11.0562 14.2481 11.5531 13.7783C11.7518 13.6052 11.9258 13.4074 12.1245 13.2343C13.5407 11.899 13.5407 10.1434 12.1245 8.80812L10.286 7.05247C10.0873 6.85465 9.86365 6.65683 9.66489 6.45901C9.26738 6.06338 8.82017 5.64301 8.39781 5.2721C7.75185 4.65391 6.95682 4.33246 6.13694 4.33246C5.31707 4.33246 4.52203 4.65391 3.82638 5.2721L1.51582 7.47284C0.621413 8.26411 0.149364 9.27794 0.0251401 10.4401C-0.123928 12.3194 0.4475 14.0503 0.894705 15.1878C1.98787 17.982 3.62762 20.5784 6.06241 23.3478C9.01893 26.686 12.5966 29.3319 16.6711 31.2111C18.2363 31.9035 20.2984 32.7442 22.6338 32.8679C22.7829 32.8679 22.932 32.8679 23.0562 32.8679C24.6214 32.8679 25.9382 32.3239 26.9568 31.2853C26.9568 31.2853 26.9568 31.2853 26.9817 31.2606C27.3295 30.865 27.727 30.494 28.1742 30.0984C28.4723 29.8264 28.7705 29.5544 29.0438 29.2824C29.7146 28.6148 30.0624 27.8482 30.0624 27.0569C30.0624 26.2657 29.7146 25.4991 29.0189 24.8562L25.2922 21.3202Z" fill="#1D1D1B"/><path d="M17.2916 9.77244C19.0556 10.0444 20.6705 10.8357 21.9624 12.0721C23.2543 13.2837 24.0742 14.8168 24.3723 16.4983C24.4469 16.9187 24.8196 17.2154 25.2668 17.2154C25.3164 17.2154 25.3661 17.2154 25.4158 17.2154C25.9127 17.1412 26.2357 16.6961 26.1612 16.2263C25.7885 14.1987 24.7699 12.3441 23.2295 10.8852C21.6891 9.42626 19.7264 8.46189 17.5897 8.11571C17.0928 8.04153 16.6208 8.36298 16.5214 8.80808C16.4469 9.2779 16.7699 9.72299 17.2668 9.79717" fill="#1D1D1B"/><path d="M32.0004 15.9296C31.4041 12.5914 29.7395 9.5499 27.1805 7.12662C24.6215 4.70333 21.3917 3.14551 17.8637 2.55205C17.3668 2.47787 16.8948 2.79932 16.8202 3.24442C16.7457 3.71424 17.0687 4.15933 17.5656 4.23351C20.7209 4.75279 23.6029 6.16225 25.8886 8.31353C28.1743 10.4895 29.665 13.2096 30.1867 16.1768C30.2612 16.5972 30.6588 16.8939 31.0811 16.8939C31.1308 16.8939 31.1805 16.8939 31.2302 16.8939C31.7271 16.8198 32.0501 16.3747 31.9755 15.9048" fill="#1D1D1B"/></g><defs><clipPath id="clip0_54_5177"><rect width="32" height="32" fill="white" transform="translate(0 0.709961)"/></clipPath></defs></svg>