<?xml version="1.0" encoding="UTF-8"?>
<svg id="Warstwa_1" data-name="Warstwa 1" xmlns="http://www.w3.org/2000/svg" viewBox="0 0 21 21">
  <defs>
    <style>
      .cls-1 {
        fill: #000;
        stroke-width: 0px;
      }
    </style>
  </defs>
  <path class="cls-1" d="M9.27,14.65c-2.77,0-5.03-2.26-5.03-5.03s2.26-5.03,5.03-5.03,5.03,2.26,5.03,5.03-2.26,5.03-5.03,5.03M18.6,18.04s-.04-.06-.06-.09l-4.33-4.32c.89-1.09,1.42-2.49,1.42-4,0-3.51-2.86-6.37-6.37-6.37s-6.37,2.86-6.37,6.37,2.86,6.37,6.37,6.37c1.51,0,2.91-.53,4-1.42l4.32,4.32s.06.05.1.07c.1.06.22.1.35.1.37,0,.67-.3.67-.67,0-.13-.04-.25-.1-.35"/>
</svg>