<?xml version="1.0" encoding="UTF-8"?>
<svg id="Warstwa_2" data-name="Warstwa 2" xmlns="http://www.w3.org/2000/svg" xmlns:xlink="http://www.w3.org/1999/xlink" viewBox="0 0 25 25">
  <defs>
    <style>
      .cls-1 {
        fill: none;
      }

      .cls-1, .cls-2, .cls-3 {
        stroke-width: 0px;
      }

      .cls-4 {
        clip-path: url(#clippath-1);
      }

      .cls-5 {
        clip-path: url(#clippath);
      }

      .cls-2 {
        fill: #1d1d1b;
      }

      .cls-3 {
        fill: #fff;
      }
    </style>
    <clipPath id="clippath">
      <rect class="cls-1" x="4.75" y="4.08" width="15.5" height="16.84"/>
    </clipPath>
    <clipPath id="clippath-1">
      <rect class="cls-1" x="4" y="5.4" width="17.01" height="14.19"/>
    </clipPath>
  </defs>
  <g id="Warstwa_1-2" data-name="Warstwa 1">
    <g>
      <rect class="cls-3" width="25" height="25"/>
      <g>
        <g class="cls-5">
          <path class="cls-2" d="M7.59,10.72v-.19c0-.81.02-1.63,0-2.45-.01-.43.21-.68.6-.65,0,0,.02,0,.03-.01v-.3h-1.32c-.37,2.52-.74,5.03-1.12,7.54h1.18v-3.38c0-.36.18-.55.52-.56.03,0,.06,0,.11,0M17.4,12.03s.06,0,.08,0c.4.02.55.18.55.6v2.02h1.18c-.37-2.52-.75-5.03-1.12-7.55h-1.32v1.63c.06,0,.1,0,.15,0,.22,0,.4.14.46.35.01.06.01.13.01.2v2.73M15.81,6.38h-.19c-1.13,0-2.25,0-3.38,0-.25,0-.41-.1-.51-.33-.14-.29-.28-.58-.41-.87-.04-.09-.09-.12-.19-.12-.61,0-1.21,0-1.82,0-.04,0-.08,0-.12,0v2.36c.57,0,1.12,0,1.68,0,.24,0,.41.1.51.33.13.29.27.57.4.85.05.1.1.14.22.14,1.22,0,2.44,0,3.67,0,.05,0,.1,0,.15,0v-2.36ZM8.56,8.42v2.3c.56,0,1.12,0,1.68,0,.24,0,.4.1.5.32.13.29.28.57.4.85.05.11.11.15.23.15,1.64,0,3.28,0,4.92,0h.16v-2.3h-.2c-1.55,0-3.1,0-4.65,0-.24,0-.4-.1-.5-.32-.14-.3-.28-.6-.43-.89-.02-.05-.09-.1-.13-.1-.65,0-1.31,0-1.97,0M7.92,14.67c.78,0,1.55,0,2.31,0,.25,0,.41.1.51.33.14.29.28.59.42.88.04.08.08.11.17.11.78,0,1.56,0,2.34,0,.09,0,.13-.03.17-.11.14-.29.28-.58.42-.88.11-.23.27-.33.51-.33.71,0,1.42,0,2.13,0h.17v-1.64h-.2c-1.97,0-3.94,0-5.92,0-.23,0-.39-.1-.49-.31-.13-.28-.28-.57-.41-.85-.05-.11-.1-.16-.24-.16-.58,0-1.17,0-1.75,0-.05,0-.1,0-.16,0v2.95ZM19.29,19.92v-4.25s-.04-.01-.05-.01c-1.38,0-2.76,0-4.14,0-.05,0-.11.05-.13.1-.15.3-.3.6-.44.91-.1.21-.25.31-.48.31-1.03,0-2.06,0-3.09,0-.23,0-.39-.1-.49-.31-.14-.29-.28-.57-.41-.87-.05-.1-.1-.14-.21-.14-1.33,0-2.67,0-4,0-.05,0-.09,0-.13,0v4.26h13.58ZM8.57,4.08h3.1c.18.08.29.22.37.4.11.25.25.5.35.75.06.13.13.16.26.16,1.2,0,2.41,0,3.61,0,.31,0,.5.2.5.52v.2h1.69c.3,0,.48.15.52.45.08.52.16,1.04.23,1.56.14.97.29,1.93.43,2.9.14.96.29,1.92.43,2.88.06.43.16.86.17,1.3.02,1.71,0,3.43,0,5.14,0,.36-.18.55-.54.55-4.81,0-9.62,0-14.42,0-.36,0-.54-.19-.54-.57v-5.11c0-.07,0-.14,0-.21.21-1.39.42-2.77.62-4.16.21-1.43.42-2.86.64-4.3.05-.29.22-.44.5-.44h1.72c0-.48.01-.95,0-1.41-.01-.3.09-.51.35-.63"/>
        </g>
        <g class="cls-4">
          <path class="cls-2" d="M12.5,16.14h1.03c.2,0,.34.14.34.32,0,.2-.14.33-.34.33-.69,0-1.38,0-2.06,0-.2,0-.34-.14-.34-.33,0-.19.14-.32.34-.32h1.03Z"/>
        </g>
      </g>
    </g>
  </g>
</svg>